<?xml version="1.0" encoding="utf-8"?>
<!-- Generator: Adobe Illustrator 27.9.0, SVG Export Plug-In . SVG Version: 6.00 Build 0)  -->
<svg version="1.1" id="Layer_1" xmlns="http://www.w3.org/2000/svg" xmlns:xlink="http://www.w3.org/1999/xlink" x="0px" y="0px"
	 viewBox="0 0 576 773.51" style="enable-background:new 0 0 576 773.51;" xml:space="preserve">
<style type="text/css">
	.st0{fill:#1E1E1E;}
	.st1{fill:#EDEDED;}
</style>
<g>
	<g>
		<g>
			<path class="st0" d="M258.79,328.3c-2.82-19.62-8.55-37.7-21.01-53.04c-13.69-16.85-31.47-26.28-53.13-27.36
				c-13.8-0.69-27.66-0.13-41.97-0.13c0,26.81,0,53.54,0,80.47c-11.6,0-22.73,0-34.41,0c0-1.42,0-2.76,0-4.1
				c0-17.79,0.26-35.6-0.18-53.38c-0.13-5.14-1.7-10.47-3.66-15.29c-2.57-6.32-7.99-9.23-14.87-9.22c-1.63,0-3.26-0.14-5.08-0.22
				c0-1.48,0-2.82,0-4.52c7.15,0,14.24,0.03,21.32-0.01c26.18-0.13,52.36-0.61,78.53-0.32c20.46,0.22,40.37,4.01,58.68,13.63
				c24.74,13,40.25,33.49,47.43,60.39c1.13,4.23,1.94,8.53,2.96,13.09C281.52,328.3,270.25,328.3,258.79,328.3z"/>
			<path class="st0" d="M108.29,392.87c11.63,0,22.76,0,34.16,0c0,21.96,0,43.76,0,66.28c3.99,0,7.74,0.07,11.49-0.01
				c13.95-0.29,28.03,0.46,41.81-1.21c20.55-2.48,36.64-13.41,48.19-30.64c6.92-10.32,11.47-21.66,13.38-34.3
				c10.91,0,21.9,0,33.24,0c-5.04,18.55-13.58,34.9-28.08,47.73c-15.9,14.06-34.87,21.47-55.58,24.3
				c-10.11,1.38-20.43,1.53-30.67,1.6c-29.09,0.2-58.18,0.07-87.26,0.07c-1.37,0-2.73,0-4.24,0c0-1.6,0-2.83,0-4.17
				c3.66-0.36,7.31-0.5,10.87-1.11c5.23-0.9,8.69-4.33,10.27-9.16c1.28-3.9,2.23-8.1,2.3-12.18
				C108.45,424.46,108.29,408.85,108.29,392.87z"/>
			<path class="st0" d="M285.42,245.97c0-1.49,0-2.71,0-4.21c26.51,0,52.97,0,79.64,0c0,1.43,0,2.75,0,4.51
				c-2.48,0-4.86-0.03-7.24,0.01c-5.69,0.07-9.57,2.74-11.63,8.1c-2.17,5.66-2.15,11.34-0.17,17.08
				c6.18,17.92,12.3,35.87,18.43,53.81c0.32,0.92,0.47,1.9,0.75,3.04c-11.4,0-22.54,0-34.01,0c-1.3-3.32-2.71-6.68-3.93-10.1
				c-6.19-17.26-12.2-34.58-18.58-51.76c-1.56-4.21-3.9-8.27-6.56-11.89C298.14,249.11,292.48,246.1,285.42,245.97z"/>
			<path class="st0" d="M388.43,392.95c4.62,12.69,9.02,24.79,13.77,37.85c4.6-13.15,8.87-25.35,13.23-37.82c2.77,0,5.6,0,8.91,0
				c-8.65,24.6-17.23,49.01-25.85,73.54c-6,0-12.07,0-18.25,0c-8.58-24.5-17.12-48.91-25.76-73.58
				C366.08,392.95,377.3,392.95,388.43,392.95z"/>
			<path class="st0" d="M436.54,328.28c3.93-11.48,7.75-22.42,11.41-33.41c3.38-10.16,6.89-20.3,9.7-30.63
				c0.9-3.31,0.25-7.28-0.51-10.76c-1.05-4.76-4.53-7.13-9.41-7.3c-2.65-0.09-5.3-0.02-8.2-0.02c0-1.58,0-2.89,0-4.45
				c17.23,0,34.44,0,51.97,0c0,1.27,0,2.58,0,3.73c-3.3,0.99-6.85,1.55-9.93,3.08c-6.48,3.21-10.24,8.99-12.65,15.57
				c-7.48,20.4-14.79,40.86-22.18,61.3c-0.34,0.93-0.73,1.85-1.14,2.9C442.76,328.28,440,328.28,436.54,328.28z"/>
		</g>
		<g>
			<path class="st0" d="M96.75,344.27c2.27,1.31,4.02,3.18,5.25,5.61c1.23,2.43,1.85,5.24,1.85,8.44s-0.62,6-1.85,8.4
				c-1.24,2.4-2.99,4.25-5.25,5.56c-2.27,1.31-4.89,1.97-7.88,1.97h-9.93v-31.95h9.93C91.86,342.31,94.49,342.96,96.75,344.27z
				 M95.59,366.06c1.63-1.83,2.44-4.41,2.44-7.74c0-3.33-0.81-5.93-2.44-7.8c-1.63-1.88-3.94-2.81-6.92-2.81h-4.03v21.1h4.03
				C91.66,368.81,93.97,367.89,95.59,366.06z"/>
			<path class="st0" d="M121.98,347.48v8.01h9.57v5.08h-9.57v8.47h10.79v5.22h-16.49v-32h16.49v5.22H121.98z"/>
			<path class="st0" d="M160.74,374.26l-6.27-12.45h-2.69v12.45h-5.7v-31.95h10.67c2.2,0,4.07,0.44,5.62,1.3s2.71,2.04,3.48,3.52
				c0.77,1.48,1.16,3.14,1.16,4.97c0,2.11-0.54,4.01-1.63,5.7c-1.09,1.69-2.7,2.86-4.85,3.5l6.8,12.95H160.74z M151.78,357h4.76
				c1.55,0,2.7-0.42,3.46-1.26c0.76-0.84,1.14-2.01,1.14-3.5c0-1.46-0.38-2.6-1.14-3.41c-0.76-0.81-1.91-1.21-3.46-1.21h-4.76V357z"
				/>
			<path class="st0" d="M211.31,342.31v31.95h-5.7v-20.78L198,374.26h-4.32l-7.65-20.78v20.78h-5.7v-31.95h6.47l9.04,23.76
				l9.04-23.76H211.31z"/>
			<path class="st0" d="M242.5,368.17h-11.32l-1.87,6.09h-5.99l10.22-32h6.64l10.22,32h-6.03L242.5,368.17z M240.95,363.04
				l-4.11-13.37l-4.11,13.37H240.95z"/>
			<path class="st0" d="M305.73,342.31l-10.42,31.95h-6.92l-10.42-31.95h6.11l7.82,25.4l7.78-25.4H305.73z"/>
			<path class="st0" d="M323,347.48v8.01h9.57v5.08H323v8.47h10.79v5.22H317.3v-32h16.49v5.22H323z"/>
			<path class="st0" d="M361.76,374.26l-6.27-12.45h-2.69v12.45h-5.7v-31.95h10.67c2.2,0,4.07,0.44,5.62,1.3s2.71,2.04,3.48,3.52
				c0.77,1.48,1.16,3.14,1.16,4.97c0,2.11-0.54,4.01-1.63,5.7c-1.09,1.69-2.7,2.86-4.85,3.5l6.8,12.95H361.76z M352.8,357h4.76
				c1.55,0,2.7-0.42,3.46-1.26c0.76-0.84,1.14-2.01,1.14-3.5c0-1.46-0.38-2.6-1.14-3.41c-0.76-0.81-1.91-1.21-3.46-1.21h-4.76V357z"
				/>
			<path class="st0" d="M387.04,342.31v31.95h-5.7v-31.95H387.04z"/>
			<path class="st0" d="M420.15,342.31v5.17h-7.57v26.78h-5.7v-26.78h-7.57v-5.17H420.15z"/>
			<path class="st0" d="M449.87,368.17h-11.32l-1.87,6.09h-5.99l10.22-32h6.64l10.22,32h-6.03L449.87,368.17z M448.32,363.04
				l-4.11-13.37l-4.11,13.37H448.32z"/>
			<path class="st0" d="M474.2,373.43c-1.59-0.76-2.84-1.86-3.77-3.3c-0.92-1.43-1.4-3.13-1.42-5.08h6.11
				c0.08,1.31,0.5,2.35,1.24,3.11c0.75,0.76,1.77,1.14,3.07,1.14c1.33,0,2.38-0.36,3.14-1.08c0.76-0.72,1.14-1.66,1.14-2.81
				c0-0.95-0.26-1.72-0.77-2.33s-1.16-1.09-1.93-1.44c-0.77-0.35-1.84-0.74-3.2-1.17c-1.85-0.61-3.35-1.21-4.5-1.81
				c-1.15-0.59-2.14-1.49-2.97-2.7c-0.83-1.21-1.24-2.81-1.24-4.83c0-1.89,0.42-3.54,1.26-4.94c0.84-1.4,2.02-2.48,3.54-3.23
				c1.52-0.75,3.26-1.12,5.21-1.12c2.93,0,5.31,0.8,7.15,2.4c1.83,1.6,2.84,3.84,3.03,6.71h-6.27c-0.05-1.1-0.47-2.01-1.24-2.72
				c-0.77-0.72-1.8-1.08-3.07-1.08c-1.11,0-2,0.32-2.67,0.96c-0.67,0.64-1,1.57-1,2.79c0,0.85,0.25,1.56,0.75,2.13
				c0.5,0.56,1.13,1.02,1.87,1.37c0.75,0.35,1.8,0.76,3.16,1.21c1.85,0.61,3.35,1.22,4.52,1.83c1.17,0.61,2.17,1.53,3.01,2.75
				c0.84,1.22,1.26,2.82,1.26,4.81c0,1.71-0.39,3.3-1.18,4.76c-0.79,1.46-1.94,2.63-3.46,3.5c-1.52,0.87-3.33,1.3-5.42,1.3
				C477.57,374.58,475.79,374.19,474.2,373.43z"/>
		</g>
	</g>
	<g>
		<path class="st0" d="M96.64,514.09c-1.13-0.51-2.02-1.21-2.66-2.11c-0.64-0.9-0.97-1.94-0.99-3.12H96
			c0.1,1.02,0.52,1.87,1.26,2.56c0.73,0.69,1.81,1.04,3.22,1.04c1.35,0,2.41-0.34,3.19-1.01c0.78-0.67,1.17-1.54,1.17-2.59
			c0-0.83-0.23-1.5-0.68-2.02c-0.46-0.52-1.03-0.91-1.71-1.18s-1.61-0.56-2.77-0.87c-1.43-0.37-2.57-0.75-3.43-1.12
			c-0.86-0.37-1.6-0.96-2.21-1.76c-0.61-0.8-0.92-1.87-0.92-3.22c0-1.18,0.3-2.23,0.9-3.14c0.6-0.91,1.45-1.62,2.53-2.11
			s2.34-0.75,3.74-0.75c2.03,0,3.69,0.51,4.99,1.52c1.29,1.02,2.02,2.36,2.19,4.04h-3.11c-0.1-0.83-0.54-1.56-1.31-2.19
			c-0.77-0.63-1.78-0.95-3.04-0.95c-1.18,0-2.14,0.31-2.89,0.92c-0.75,0.61-1.12,1.47-1.12,2.56c0,0.79,0.22,1.43,0.67,1.93
			c0.45,0.5,0.99,0.88,1.65,1.13c0.65,0.26,1.57,0.55,2.75,0.89c1.43,0.39,2.58,0.78,3.45,1.17c0.87,0.38,1.62,0.97,2.24,1.77
			s0.93,1.88,0.93,3.25c0,1.06-0.28,2.05-0.84,2.98c-0.56,0.93-1.39,1.69-2.49,2.27c-1.1,0.58-2.39,0.87-3.88,0.87
			C99.04,514.85,97.76,514.6,96.64,514.09z"/>
		<path class="st0" d="M129.81,514.63l-8.92-9.88v9.88h-2.83v-21.66h2.83v10.04l8.95-10.04h3.57l-9.82,10.84l9.91,10.81H129.81z"/>
		<path class="st0" d="M145.72,492.97v21.66h-2.83v-21.66H145.72z"/>
		<path class="st0" d="M173.77,514.63h-2.83l-11.37-17.25v17.25h-2.83v-21.69h2.83l11.37,17.21v-17.21h2.83V514.63z"/>
		<path class="st0" d="M215.94,514.63l-2.83-2.86c-1.06,1.1-2.19,1.91-3.39,2.44c-1.2,0.53-2.56,0.79-4.07,0.79
			c-1.49,0-2.81-0.27-3.96-0.81c-1.15-0.54-2.04-1.31-2.67-2.3c-0.63-0.99-0.95-2.15-0.95-3.48c0-1.51,0.43-2.84,1.29-3.99
			c0.86-1.15,2.13-2.06,3.81-2.72c-0.66-0.79-1.14-1.51-1.43-2.18c-0.29-0.66-0.44-1.39-0.44-2.18c0-0.91,0.23-1.73,0.7-2.47
			c0.47-0.73,1.13-1.31,2-1.72c0.87-0.41,1.88-0.62,3.01-0.62c1.12,0,2.09,0.22,2.92,0.65s1.45,1.04,1.86,1.82
			c0.41,0.78,0.6,1.64,0.56,2.59h-2.83c0.02-0.85-0.22-1.52-0.71-2c-0.5-0.49-1.14-0.73-1.93-0.73c-0.83,0-1.5,0.23-2,0.7
			c-0.51,0.47-0.76,1.06-0.76,1.79c0,0.62,0.17,1.22,0.51,1.8c0.34,0.58,0.92,1.29,1.72,2.14l6.46,6.49l0.56-0.87l2.11-3.54h3.04
			L216,507.8c-0.35,0.62-0.77,1.27-1.24,1.96l4.88,4.88H215.94z M208.69,511.93c0.9-0.43,1.76-1.11,2.56-2.02l-6.37-6.4
			c-2.65,1.02-3.98,2.62-3.98,4.82c0,1.22,0.44,2.24,1.32,3.05s2.02,1.21,3.43,1.21C206.77,512.58,207.78,512.36,208.69,511.93z"/>
		<path class="st0" d="M259.69,492.97v21.66h-2.83v-9.82h-11.03v9.82h-2.83v-21.66h2.83v9.51h11.03v-9.51H259.69z"/>
		<path class="st0" d="M283.53,509.82h-9.45l-1.74,4.82h-2.98l7.83-21.53h3.26l7.8,21.53h-2.98L283.53,509.82z M282.72,507.52
			l-3.92-10.94l-3.92,10.94H282.72z"/>
		<path class="st0" d="M300.71,492.97v21.66h-2.83v-21.66H300.71z"/>
		<path class="st0" d="M323.14,514.63l-5.16-8.86h-3.42v8.86h-2.83v-21.66h6.99c1.64,0,3.02,0.28,4.15,0.84
			c1.13,0.56,1.97,1.32,2.53,2.27c0.56,0.95,0.84,2.04,0.84,3.26c0,1.49-0.43,2.81-1.29,3.95c-0.86,1.14-2.15,1.9-3.87,2.27
			l5.44,9.07H323.14z M314.57,503.51h4.16c1.53,0,2.68-0.38,3.45-1.13c0.77-0.76,1.15-1.77,1.15-3.03c0-1.28-0.38-2.28-1.13-2.98
			c-0.76-0.7-1.91-1.06-3.46-1.06h-4.16V503.51z"/>
		<path class="st0" d="M351.73,498.09c0.95-1.69,2.25-3.01,3.9-3.96c1.65-0.95,3.48-1.43,5.48-1.43c2.36,0,4.42,0.57,6.18,1.71
			s3.05,2.76,3.85,4.85h-3.39c-0.6-1.31-1.47-2.31-2.59-3.01c-1.13-0.7-2.48-1.06-4.06-1.06c-1.51,0-2.87,0.35-4.07,1.06
			c-1.2,0.7-2.14,1.7-2.83,3c-0.68,1.29-1.03,2.81-1.03,4.55c0,1.72,0.34,3.23,1.03,4.52c0.68,1.29,1.63,2.29,2.83,3
			c1.2,0.7,2.56,1.06,4.07,1.06c1.57,0,2.93-0.35,4.06-1.04c1.13-0.69,1.99-1.69,2.59-3h3.39c-0.81,2.07-2.09,3.67-3.85,4.8
			s-3.82,1.69-6.18,1.69c-2.01,0-3.84-0.47-5.48-1.41c-1.65-0.94-2.95-2.25-3.9-3.93c-0.95-1.68-1.43-3.57-1.43-5.69
			C350.3,501.68,350.78,499.77,351.73,498.09z"/>
		<path class="st0" d="M384.39,512.33h7.58v2.3h-10.41v-21.66h2.83V512.33z"/>
		<path class="st0" d="M404.03,492.97v21.66h-2.83v-21.66H404.03z"/>
		<path class="st0" d="M432.09,514.63h-2.83l-11.37-17.25v17.25h-2.83v-21.69h2.83l11.37,17.21v-17.21h2.83V514.63z"/>
		<path class="st0" d="M445.95,492.97v21.66h-2.83v-21.66H445.95z"/>
		<path class="st0" d="M457.35,498.09c0.95-1.69,2.25-3.01,3.9-3.96c1.65-0.95,3.48-1.43,5.48-1.43c2.36,0,4.42,0.57,6.18,1.71
			s3.05,2.76,3.85,4.85h-3.39c-0.6-1.31-1.47-2.31-2.59-3.01c-1.13-0.7-2.48-1.06-4.06-1.06c-1.51,0-2.87,0.35-4.07,1.06
			c-1.2,0.7-2.14,1.7-2.83,3c-0.68,1.29-1.03,2.81-1.03,4.55c0,1.72,0.34,3.23,1.03,4.52c0.68,1.29,1.63,2.29,2.83,3
			c1.2,0.7,2.56,1.06,4.07,1.06c1.57,0,2.93-0.35,4.06-1.04c1.13-0.69,1.99-1.69,2.59-3h3.39c-0.81,2.07-2.09,3.67-3.85,4.8
			s-3.82,1.69-6.18,1.69c-2.01,0-3.84-0.47-5.48-1.41c-1.65-0.94-2.95-2.25-3.9-3.93c-0.95-1.68-1.43-3.57-1.43-5.69
			C455.92,501.68,456.4,499.77,457.35,498.09z"/>
	</g>
</g>
</svg>
